<svg xmlns="http://www.w3.org/2000/svg" viewBox="0 0 64 64" role="img" aria-labelledby="title desc">
  <title id="title">bacus.dev</title>
  <desc id="desc">Geometric B monogram with cyan accent slash.</desc>
  <defs>
    <linearGradient id="g" x1="8" y1="6" x2="56" y2="58" gradientUnits="userSpaceOnUse">
      <stop stop-color="#00e5cc"/>
      <stop offset="0.5" stop-color="#5ef0d8"/>
      <stop offset="1" stop-color="#a3ffd6"/>
    </linearGradient>
    <linearGradient id="s" x1="42" y1="12" x2="24" y2="52" gradientUnits="userSpaceOnUse">
      <stop stop-color="#a3ff73"/>
      <stop offset="0.5" stop-color="#00e5cc"/>
      <stop offset="1" stop-color="#80ffe2"/>
    </linearGradient>
  </defs>
  <rect x="4" y="4" width="56" height="56" rx="13" fill="none" stroke="url(#g)" stroke-width="2"/>
  <!-- B letter as single path (stroke only, theme-safe) -->
  <path d="M20 17h11c5.4 0 9 2.8 9 7.2 0 2.9-1.5 5.1-4.1 6.3 3.4 1.1 5.5 3.6 5.5 7.4 0 4.9-3.9 8.1-10.2 8.1H20V17z M26.5 22.2v7.2h4.2c2.6 0 4.2-1.2 4.2-3.6s-1.6-3.6-4.2-3.6h-4.2zm0 12.2v8.2h5c2.9 0 4.7-1.4 4.7-4.1s-1.8-4.1-4.7-4.1h-5z" fill="none" stroke="url(#g)" stroke-width="2.6" stroke-linejoin="round"/>
  <path d="M43 15L29 49" stroke="url(#s)" stroke-width="2.8" stroke-linecap="round"/>
</svg>
