<svg xmlns="http://www.w3.org/2000/svg" viewBox="0 0 360 96" role="img" aria-labelledby="title desc">
  <title id="title">bacus.dev</title>
  <desc id="desc">bacus.dev logo with geometric B slash monogram.</desc>
  <defs>
    <linearGradient id="frame" x1="10" y1="8" x2="88" y2="90" gradientUnits="userSpaceOnUse">
      <stop stop-color="#66E3FF"/>
      <stop offset="0.52" stop-color="#9487FF"/>
      <stop offset="1" stop-color="#A3FF73"/>
    </linearGradient>
    <linearGradient id="letter" x1="25" y1="20" x2="69" y2="80" gradientUnits="userSpaceOnUse">
      <stop stop-color="#EAFBFF"/>
      <stop offset="0.38" stop-color="#72E6FF"/>
      <stop offset="0.72" stop-color="#A192FF"/>
      <stop offset="1" stop-color="#B6FF8F"/>
    </linearGradient>
    <linearGradient id="slash" x1="69" y1="18" x2="48" y2="78" gradientUnits="userSpaceOnUse">
      <stop stop-color="#A3FF73"/>
      <stop offset="0.48" stop-color="#66E3FF"/>
      <stop offset="1" stop-color="#9487FF"/>
    </linearGradient>
    <linearGradient id="dev" x1="248" y1="28" x2="330" y2="68" gradientUnits="userSpaceOnUse">
      <stop stop-color="#66E3FF"/>
      <stop offset="0.55" stop-color="#9487FF"/>
      <stop offset="1" stop-color="#A3FF73"/>
    </linearGradient>
    <radialGradient id="glow" cx="0" cy="0" r="1" gradientTransform="translate(70 18) rotate(128) scale(72)" gradientUnits="userSpaceOnUse">
      <stop stop-color="#66E3FF" stop-opacity="0.18"/>
      <stop offset="1" stop-color="#66E3FF" stop-opacity="0"/>
    </radialGradient>
  </defs>

  <g transform="translate(0 0)">
    <rect x="3" y="3" width="90" height="90" rx="25" fill="#07090D"/>
    <rect x="4" y="4" width="88" height="88" rx="24" fill="url(#glow)"/>
    <rect x="3.75" y="3.75" width="88.5" height="88.5" rx="24.25" fill="none" stroke="url(#frame)" stroke-width="1.5" stroke-opacity="0.78"/>
    <path d="M26 20h22.8c13.2 0 21.2 6.1 21.2 16 0 6.1-3.1 10.8-9 13.5 7.4 2.7 11.3 8 11.3 15.6 0 11.2-8.8 17.9-23.8 17.9H26V20Zm15 12.6v11.9h7c5 0 7.9-2 7.9-6.1 0-3.9-2.9-5.8-8-5.8H41Zm0 23.7v13.8h8.9c5.7 0 8.7-2.3 8.7-6.9 0-4.5-3.2-6.9-9.1-6.9H41Z" fill="url(#letter)"/>
    <path d="M72.5 17.5 51.8 78.5" stroke="#07090D" stroke-width="8.5" stroke-linecap="round"/>
    <path d="M72.5 17.5 51.8 78.5" stroke="url(#slash)" stroke-width="4.8" stroke-linecap="round"/>
    <circle cx="75.5" cy="17.5" r="2.5" fill="#A3FF73"/>
    <circle cx="49.2" cy="79.2" r="2.1" fill="#9487FF"/>
  </g>

  <text x="118" y="60" fill="#F4F7FB" font-family="Inter,Segoe UI,Arial,sans-serif" font-size="43" font-weight="800" letter-spacing="-2.1">bacus</text>
  <text x="236" y="60" fill="url(#dev)" font-family="Inter,Segoe UI,Arial,sans-serif" font-size="43" font-weight="800" letter-spacing="-2.1">.dev</text>
  <text x="121" y="78" fill="#8E9AAD" font-family="Inter,Segoe UI,Arial,sans-serif" font-size="8.8" font-weight="700" letter-spacing="2.25">PRODUCT ENGINEERING LAB</text>
</svg>
